<?xml version="1.0" encoding="UTF-8"?>
<svg version="1.1" xmlns="http://www.w3.org/2000/svg" width="71" height="90">
<path d="M0 0 C1.98 0 3.96 0 6 0 C6.02953391 3.91665027 6.04697503 7.83327113 6.0625 11.75 C6.07087891 12.84183594 6.07925781 13.93367188 6.08789062 15.05859375 C6.10968394 22.4247337 5.7350759 29.67078775 5 37 C3.35 37 1.7 37 0 37 C-0.33 30.07 -0.66 23.14 -1 16 C-5.83312049 25.50035456 -5.83312049 25.50035456 -6 39 C23.205 39.495 23.205 39.495 53 40 C53 41.32 53 42.64 53 44 C50.36 44 47.72 44 45 44 C45 51.92 45 59.84 45 68 C40.545 68.495 40.545 68.495 36 69 C33.54592867 69.86911388 33.54592867 69.86911388 31.55859375 71.02734375 C26.68777069 73.35971661 22.41069728 73.65649924 17.0625 73.5625 C16.18368164 73.55226807 15.30486328 73.54203613 14.39941406 73.53149414 C7.61050792 73.3090207 2.50142381 72.1683865 -3 68 C-3.7115625 67.49210937 -4.423125 66.98421875 -5.15625 66.4609375 C-11.23429833 61.67560841 -15.55291714 55.34124858 -18 48 C-18.30967865 44.31796009 -18.32399097 40.63101763 -18.375 36.9375 C-18.41238281 35.93783203 -18.44976563 34.93816406 -18.48828125 33.90820312 C-18.60539576 23.8949127 -14.95582657 16.12144148 -8 9 C-6.1868224 7.68448178 -4.36295956 6.44424912 -2.453125 5.2734375 C-0.61126621 3.65933544 -0.38094884 2.37591776 0 0 Z M-6 44 C-5.54883262 52.27140195 -2.77713291 58.74262021 3.375 64.4375 C8.29940248 68.24994063 12.91069307 69.23612742 19.0625 68.8125 C24.55460395 68.11138035 28.42489396 66.05007069 33 63 C33.41480107 60.97112689 33.41480107 60.97112689 33.29296875 58.6484375 C33.28330078 57.79765625 33.27363281 56.946875 33.26367188 56.0703125 C33.23853516 55.18085937 33.21339844 54.29140625 33.1875 53.375 C33.17396484 52.4778125 33.16042969 51.580625 33.14648438 50.65625 C33.11106925 48.43690211 33.06168461 46.21874812 33 44 C32.67 44 32.34 44 32 44 C31.98582031 45.10859375 31.97164062 46.2171875 31.95703125 47.359375 C31.91012154 48.82295784 31.86187419 50.28649823 31.8125 51.75 C31.80669922 52.47960937 31.80089844 53.20921875 31.79492188 53.9609375 C31.70703125 56.109375 31.70703125 56.109375 31 60 C29.35 61.32 27.7 62.64 26 64 C26 57.4 26 50.8 26 44 C25.67 44 25.34 44 25 44 C25 50.93 25 57.86 25 65 C23.35 65.33 21.7 65.66 20 66 C20 61.71 20 57.42 20 53 C19.67 53 19.34 53 19 53 C18.67 56.96 18.34 60.92 18 65 C16.35 65.33 14.7 65.66 13 66 C13 58.74 13 51.48 13 44 C12.67 44 12.34 44 12 44 C11.67 50.93 11.34 57.86 11 65 C10.01 64.67 9.02 64.34 8 64 C7.67 57.4 7.34 50.8 7 44 C6.67 44 6.34 44 6 44 C6 49.94 6 55.88 6 62 C5.01 62 4.02 62 3 62 C0.57188075 56.17251381 0.38272093 50.2242509 0 44 C-1.98 44 -3.96 44 -6 44 Z " fill="#4C3170" transform="translate(18,17)"/>
<path d="M0 0 C1.65 0 3.3 0 5 0 C5 0.99 5 1.98 5 3 C11.435 2.505 11.435 2.505 18 2 C18 9.59 18 17.18 18 25 C16.35 24.67 14.7 24.34 13 24 C11.7421875 21.85546875 11.7421875 21.85546875 10.875 19.1875 C9.58177367 15.31354324 8.56114026 13.41485367 6 10 C5.67 18.91 5.34 27.82 5 37 C3.35 37 1.7 37 0 37 C0 24.79 0 12.58 0 0 Z " fill="#572B7D" transform="translate(44,17)"/>
<path d="M0 0 C1.98 0 3.96 0 6 0 C6 17.82 6 35.64 6 54 C4.02 54 2.04 54 0 54 C0 36.18 0 18.36 0 0 Z " fill="#4CC0C2" transform="translate(31,0)"/>
<path d="M0 0 C1.65 0 3.3 0 5 0 C5 17.82 5 35.64 5 54 C3.35 54 1.7 54 0 54 C0 36.18 0 18.36 0 0 Z " fill="#4CC1C2" transform="translate(38,0)"/>
<path d="M0 0 C1.65 0 3.3 0 5 0 C5 17.82 5 35.64 5 54 C3.35 54 1.7 54 0 54 C0 36.18 0 18.36 0 0 Z " fill="#4CC1C2" transform="translate(25,0)"/>
<path d="M0 0 C3.96 0 7.92 0 12 0 C12 6.93 12 13.86 12 21 C7.28510138 21.94297972 4.79407663 22 0 22 C0 14.74 0 7.48 0 0 Z " fill="#4DC3C3" transform="translate(31,61)"/>
<path d="M0 0 C1.98 0 3.96 0 6 0 C6.02953391 3.91665027 6.04697503 7.83327113 6.0625 11.75 C6.07087891 12.84183594 6.07925781 13.93367188 6.08789062 15.05859375 C6.10968394 22.4247337 5.7350759 29.67078775 5 37 C3.35 37 1.7 37 0 37 C0 24.79 0 12.58 0 0 Z " fill="#4DC2C3" transform="translate(18,17)"/>
<path d="M0 0 C1.65 0 3.3 0 5 0 C5 12.21 5 24.42 5 37 C3.35 37 1.7 37 0 37 C0 24.79 0 12.58 0 0 Z " fill="#4CC2C2" transform="translate(44,17)"/>
<path d="M0 0 C1.65 0 3.3 0 5 0 C6.97796285 1.97796285 6.2747259 5.62046546 6.3125 8.3125 C6.35600586 9.32860352 6.35600586 9.32860352 6.40039062 10.36523438 C6.44480945 13.86065387 6.2533824 15.6682519 4.10546875 18.48046875 C2 20 2 20 0 20 C0 13.4 0 6.8 0 0 Z " fill="#4CC2C2" transform="translate(44,61)"/>
<path d="M0 0 C1.65 0 3.3 0 5 0 C5 7.26 5 14.52 5 22 C2.525 21.01 2.525 21.01 0 20 C0 13.4 0 6.8 0 0 Z " fill="#4DC2C3" transform="translate(25,61)"/>
<path d="M0 0 C1.98 0 3.96 0 6 0 C6 5.94 6 11.88 6 18 C5.01 18 4.02 18 3 18 C-0.81636773 12.27544841 -0.29282789 6.70250505 0 0 Z " fill="#4BC2C2" transform="translate(18,61)"/>
</svg>
